<?xml version="1.0" standalone="no"?>
<svg viewBox="0 0 200 200" xmlns="http://www.w3.org/2000/svg">
  <path fill="#03A453" d="M22.3,-32.4C32.6,-32.6,47.3,-34.2,51.6,-29C55.9,-23.8,49.9,-11.9,53.6,2.1C57.3,16.2,70.7,32.4,65.2,35.4C59.6,38.5,35.1,28.4,21,30.7C7,33.1,3.5,48,-1,49.8C-5.5,51.6,-11.1,40.2,-25.5,38C-39.9,35.8,-63.1,42.8,-68.2,38C-73.4,33.2,-60.3,16.6,-59.6,0.4C-58.8,-15.7,-70.2,-31.4,-70.6,-45.7C-71,-60,-60.2,-72.8,-46.6,-70.7C-33,-68.5,-16.5,-51.4,-5.3,-42.3C6,-33.2,12,-32.1,22.3,-32.4Z" transform="translate(100 100)" />
</svg>
