<?xml version="1.0" standalone="no"?>
<!DOCTYPE svg PUBLIC "-//W3C//DTD SVG 20010904//EN"
 "http://www.w3.org/TR/2001/REC-SVG-20010904/DTD/svg10.dtd">
<svg version="1.0" xmlns="http://www.w3.org/2000/svg"
 width="875.000000pt" height="207.000000pt" viewBox="0 0 875.000000 207.000000"
 preserveAspectRatio="xMidYMid meet">

<g transform="translate(0.000000,207.000000) scale(0.100000,-0.100000)"
fill="#000000" stroke="none">
<path d="M1305 1991 c-126 -35 -252 -109 -348 -204 -85 -84 -137 -165 -178
-277 -32 -89 -50 -220 -30 -220 13 0 222 88 233 99 4 3 0 31 -8 61 -37 138 31
305 150 368 l51 27 360 5 359 5 -41 35 c-43 37 -125 70 -223 90 -70 15 -286
22 -325 11z"/>
<path d="M2633 1771 c-82 -21 -152 -109 -160 -202 -6 -56 -5 -59 21 -68 15 -6
26 -18 26 -28 -1 -17 -1 -17 -11 0 -15 26 -32 21 -18 -5 23 -45 89 -85 186
-113 74 -22 100 -40 108 -76 21 -95 -83 -141 -184 -82 -25 15 -54 36 -64 47
-13 15 -20 17 -24 8 -2 -7 -10 -18 -16 -25 -7 -7 -22 -31 -34 -54 -21 -39 -21
-41 -4 -57 10 -9 23 -16 29 -16 7 0 12 -4 12 -9 0 -5 24 -19 53 -32 64 -29
211 -35 227 -9 5 8 12 11 16 8 9 -10 89 47 112 80 11 15 27 53 36 85 16 53 16
63 2 111 -9 29 -25 65 -36 79 -23 29 -89 61 -160 79 -25 6 -55 18 -68 26 -19
12 -25 12 -40 1 -15 -12 -16 -12 -4 2 7 9 10 28 6 45 -14 74 84 107 171 58 52
-29 56 -29 48 -7 -4 10 -2 14 4 10 7 -5 18 12 28 44 16 48 16 51 -1 64 -11 8
-26 15 -34 15 -9 0 -21 5 -28 12 -14 14 -155 20 -199 9z m-7 -26 c-8 -8 -27
-20 -42 -26 -23 -8 -25 -12 -14 -19 12 -8 10 -10 -9 -10 -18 0 -22 -4 -16 -17
4 -10 8 -31 10 -48 2 -16 1 -24 -2 -17 -2 6 -9 12 -14 12 -6 0 -7 -4 -4 -10 3
-5 1 -10 -5 -10 -8 0 -9 7 -5 18 16 38 18 55 7 48 -7 -4 -12 -14 -12 -22 0 -8
-4 -14 -9 -14 -30 0 27 72 89 113 32 20 46 22 26 2z m60 -4 c-3 -5 -17 -11
-31 -13 -20 -4 -23 -3 -14 8 12 15 54 20 45 5z m171 -7 c-3 -3 -12 -4 -19 -1
-8 3 -5 6 6 6 11 1 17 -2 13 -5z m-89 -23 c3 -10 -2 -13 -22 -9 -14 3 -26 1
-26 -5 0 -6 -3 -7 -6 -4 -10 10 17 38 34 35 9 -2 17 -9 20 -17z m122 -3 c0 -5
-10 -8 -22 -8 -13 0 -34 -3 -48 -5 -14 -3 -19 -2 -11 1 10 5 10 8 1 14 -7 4 8
7 34 6 25 0 46 -4 46 -8z m-270 -8 c0 -5 -2 -10 -4 -10 -3 0 -8 5 -11 10 -3 6
-1 10 4 10 6 0 11 -4 11 -10z m47 -16 c-3 -3 -12 -4 -19 -1 -8 3 -5 6 6 6 11
1 17 -2 13 -5z m203 -4 c-8 -5 -26 -9 -40 -9 l-25 1 25 8 c14 4 32 8 40 9 13
1 13 0 0 -9z m-174 -20 c-28 -11 -51 -18 -53 -16 -6 6 62 36 82 35 11 0 -2 -9
-29 -19z m101 4 c-3 -3 -12 -4 -19 -1 -8 3 -5 6 6 6 11 1 17 -2 13 -5z m65
-25 c-12 -5 -29 -6 -38 -2 -24 9 2 21 34 15 25 -5 25 -5 4 -13z m-333 -56 c1
-1 -4 -12 -13 -25 -9 -12 -16 -20 -17 -18 -10 71 -10 73 8 59 10 -7 20 -14 22
-16z m55 -8 c-4 -8 -10 -15 -15 -15 -5 0 -9 7 -9 15 0 8 7 15 15 15 9 0 12 -6
9 -15z m94 -74 c10 -6 7 -10 -11 -13 -18 -4 -24 -1 -20 9 6 15 13 16 31 4z
m-112 -61 c8 0 14 -4 14 -10 0 -5 -6 -10 -13 -10 -22 0 -34 20 -28 48 l6 27 3
-27 c2 -16 9 -28 18 -28z m212 30 c48 -12 51 -20 6 -15 -33 4 -35 3 -14 -5 20
-7 17 -8 -17 -4 -23 3 -51 1 -62 -5 -21 -12 -51 -5 -51 11 0 6 6 5 15 -2 8 -6
20 -8 26 -4 7 4 26 11 43 15 23 6 18 7 -19 3 -48 -5 -49 -4 -25 10 14 8 34 12
45 10 11 -3 35 -9 53 -14z m-153 0 c3 -6 -4 -10 -17 -10 -18 0 -20 2 -8 10 19
12 18 12 25 0z m2 -36 c-3 -3 -12 -4 -19 -1 -8 3 -5 6 6 6 11 1 17 -2 13 -5z
m16 -26 c-6 -11 -41 -10 -47 1 -3 4 8 8 23 7 16 -1 27 -4 24 -8z m34 -14 c-3
-3 -12 -4 -19 -1 -8 3 -5 6 6 6 11 1 17 -2 13 -5z m60 -10 c-3 -3 -12 -4 -19
-1 -8 3 -5 6 6 6 11 1 17 -2 13 -5z m-27 -14 c13 -8 13 -10 -2 -10 -9 0 -20 5
-23 10 -8 13 5 13 25 0z m80 -20 c-13 -9 -13 -11 0 -21 13 -9 12 -10 -3 -5
-10 3 -23 6 -28 6 -16 0 -10 18 9 23 30 8 37 7 22 -3z m119 -22 c0 -31 -1 -31
-10 -10 -5 13 -7 28 -3 33 10 16 14 9 13 -23z m31 -24 c0 -8 -4 -12 -10 -9 -5
3 -10 13 -10 21 0 8 5 12 10 9 6 -3 10 -13 10 -21z m-40 -62 c0 -10 5 -23 11
-29 16 -16 1 -37 -16 -23 -8 7 -15 7 -19 1 -3 -5 -2 -11 3 -13 4 -1 11 -14 15
-28 6 -25 6 -25 -5 -2 -7 12 -18 22 -26 22 -7 0 -13 4 -13 9 0 5 -16 12 -35
15 -25 5 -33 11 -28 22 4 12 8 13 14 3 4 -7 25 -12 46 -12 35 0 38 2 38 26 -1
15 3 27 7 27 4 0 8 -8 8 -18z m27 -14 c-3 -7 -5 -2 -5 12 0 14 2 19 5 13 2 -7
2 -19 0 -25z m-391 -2 c20 -20 18 -24 -10 -22 -16 1 -21 5 -15 12 5 6 6 14 2
17 -3 4 -3 7 1 7 4 0 14 -6 22 -14z m61 -43 c15 -10 50 -21 77 -25 48 -6 47
-6 -9 -2 -84 5 -102 8 -111 17 -5 4 0 5 11 1 18 -7 18 -6 6 9 -17 22 -7 22 26
0z m179 -18 c-11 -8 -25 -15 -30 -15 -6 0 -2 7 8 15 11 8 25 15 30 15 6 0 2
-7 -8 -15z m-289 -25 c2 -21 -11 -27 -22 -10 -7 11 2 30 13 30 4 0 8 -9 9 -20z
m334 0 c10 0 19 -4 19 -10 0 -5 -9 -10 -21 -10 -12 0 -17 -4 -13 -11 3 -6 15
-8 27 -5 14 3 17 2 9 -6 -6 -6 -22 -8 -37 -4 -22 6 -25 9 -14 22 6 8 9 18 5
21 -4 4 -11 1 -16 -7 -5 -8 -13 -11 -17 -6 -4 4 1 14 12 22 12 9 21 11 23 4 2
-5 12 -10 23 -10z m-252 -21 c-7 -4 7 -6 29 -5 52 3 55 -10 5 -16 -45 -6 -44
-7 -47 26 -3 22 -1 24 11 14 11 -8 11 -13 2 -19z m-49 -9 c0 -5 6 -10 14 -10
8 0 17 -7 20 -15 5 -14 1 -13 -24 2 -30 17 -39 33 -20 33 6 0 10 -4 10 -10z
m211 -4 c-18 -10 -20 -15 -10 -19 10 -4 9 -6 -3 -6 -10 -1 -18 5 -18 13 0 8 8
17 18 19 32 9 37 6 13 -7z m-114 -22 c-3 -3 -12 -4 -19 -1 -8 3 -5 6 6 6 11 1
17 -2 13 -5z"/>
<path d="M2895 1200 c3 -5 8 -10 11 -10 2 0 4 5 4 10 0 6 -5 10 -11 10 -5 0
-7 -4 -4 -10z"/>
<path d="M4514 1765 c-10 -8 -29 -15 -40 -15 -12 0 -27 -7 -34 -15 -7 -8 -18
-15 -24 -15 -20 0 -101 -103 -126 -160 -20 -45 -25 -72 -25 -145 0 -117 22
-187 82 -254 96 -108 210 -146 346 -116 42 9 84 23 94 31 16 13 15 14 -12 8
-16 -4 -31 -11 -33 -16 -5 -11 -43 -10 -62 2 -12 8 -9 10 13 10 15 0 27 4 27
9 0 5 9 7 19 4 10 -3 28 0 39 6 18 9 20 20 19 91 l0 80 -21 -19 c-49 -45 -145
-69 -195 -49 -14 6 -41 11 -60 12 -19 0 -36 7 -37 14 -1 7 0 8 3 2 2 -5 12
-10 21 -10 12 0 11 4 -6 23 -12 13 -22 29 -22 36 0 8 -7 10 -20 6 -15 -5 -23
0 -32 22 -7 15 -17 31 -23 35 -6 5 -3 8 8 8 9 0 17 -3 18 -7 2 -23 8 -46 13
-51 13 -12 16 7 6 32 -12 33 -13 108 -1 160 16 65 114 146 177 146 33 0 104
-28 139 -54 l31 -24 2 70 c1 43 -2 67 -8 63 -6 -4 -5 6 2 20 10 22 9 28 -3 36
-19 12 -42 11 -34 -1 3 -6 -1 -7 -9 -4 -9 3 -14 11 -13 17 5 27 -184 38 -219
12z m17 -48 c-8 -8 -11 -7 -11 4 0 20 13 34 18 19 3 -7 -1 -17 -7 -23z m-56 4
c-3 -6 -14 -11 -23 -11 -13 0 -13 2 4 14 21 15 30 14 19 -3z m279 -23 c-3 -4
-13 -8 -22 -8 -15 0 -15 2 -2 10 10 6 11 10 3 10 -7 0 -13 5 -13 10 0 6 8 5
19 -2 11 -7 17 -16 15 -20z m-254 12 c0 -5 -7 -10 -15 -10 -8 0 -15 -4 -15
-10 0 -5 9 -10 20 -10 11 0 20 -5 20 -11 0 -7 -7 -8 -17 -3 -10 4 -31 7 -46 7
-20 0 -24 3 -15 8 10 7 8 9 -5 9 -11 0 -21 -8 -24 -18 -5 -20 -43 -48 -43 -32
0 5 4 10 8 10 5 0 15 11 22 25 10 19 21 25 46 25 18 0 36 5 39 10 3 6 10 10
16 10 5 0 9 -4 9 -10z m170 -30 c11 -7 6 -10 -20 -10 -26 0 -31 3 -20 10 8 5
17 10 20 10 3 0 12 -5 20 -10z m-100 -31 c0 -5 -8 -9 -17 -8 -11 0 -13 3 -5 6
6 2 9 10 6 15 -4 7 -2 8 4 4 7 -4 12 -11 12 -17z m165 -7 c-3 -3 -11 0 -18 7
-9 10 -8 11 6 5 10 -3 15 -9 12 -12z m-45 2 c-34 -7 -108 -8 -103 -1 2 4 30 6
61 6 31 -1 50 -3 42 -5z m-236 -13 c3 -5 0 -23 -8 -41 -10 -25 -14 -29 -19
-15 -4 9 -11 14 -16 11 -5 -4 -4 7 2 24 11 29 30 39 41 21z m321 -1 c3 -6 -1
-7 -9 -4 -18 7 -21 14 -7 14 6 0 13 -4 16 -10z m-425 -20 c0 -5 -5 -10 -11
-10 -5 0 -7 5 -4 10 3 6 8 10 11 10 2 0 4 -4 4 -10z m440 -22 c0 -5 -9 -3 -20
4 -11 7 -20 16 -20 20 0 5 9 3 20 -4 11 -7 20 -16 20 -20z m-473 -20 c-3 -8
-6 -5 -6 6 -1 11 2 17 5 13 3 -3 4 -12 1 -19z m173 12 c0 -5 -2 -10 -4 -10 -3
0 -8 5 -11 10 -3 6 -1 10 4 10 6 0 11 -4 11 -10z m-66 -61 c-3 -5 -10 -7 -15
-3 -5 3 -7 10 -3 15 3 5 10 7 15 3 5 -3 7 -10 3 -15z m9 -41 c-8 -46 -13 -48
-13 -5 0 21 4 37 10 37 5 0 7 -14 3 -32z m-26 -10 c-3 -7 -5 -2 -5 12 0 14 2
19 5 13 2 -7 2 -19 0 -25z m-104 -98 c3 -45 2 -59 -2 -35 l-7 40 -5 -35 c-3
-19 -4 4 -4 52 0 100 10 88 18 -22z m15 79 c-3 -8 -7 -3 -11 10 -4 17 -3 21 5
13 5 -5 8 -16 6 -23z m109 -71 c-3 -7 -5 -2 -5 12 0 14 2 19 5 13 2 -7 2 -19
0 -25z m-20 -80 c-3 -8 -6 -5 -6 6 -1 11 2 17 5 13 3 -3 4 -12 1 -19z m367
-83 c-4 -8 -1 -15 6 -15 6 0 8 -5 4 -11 -4 -7 -12 -6 -23 5 -14 15 -14 18 -1
26 20 13 20 13 14 -5z m-334 -16 c0 -5 -7 -9 -15 -9 -15 0 -20 12 -9 23 8 8
24 -1 24 -14z m-40 -5 c0 -8 -5 -12 -10 -9 -6 4 -8 11 -5 16 9 14 15 11 15 -7z
m190 -13 l35 -7 -33 -5 c-25 -4 -40 -1 -55 13 -21 18 -21 19 -2 12 11 -3 36
-10 55 -13z m-195 -31 c13 -25 20 -29 43 -25 27 5 27 5 3 -5 -14 -6 -29 -9
-35 -6 -16 6 -49 66 -37 66 6 0 17 -14 26 -30z m75 8 c-12 -5 -25 -6 -28 -3
-3 3 0 5 7 5 7 0 10 4 7 9 -4 5 4 7 16 3 l22 -5 -24 -9z m233 15 c-13 -2 -33
-2 -45 0 -13 2 -3 4 22 4 25 0 35 -2 23 -4z m81 -12 c4 -5 -3 -7 -14 -4 -23 6
-26 13 -6 13 8 0 17 -4 20 -9z m-55 -25 c20 -18 41 -21 41 -5 0 5 5 7 11 3 8
-4 3 -12 -12 -20 -21 -12 -26 -11 -41 7 -15 18 -22 19 -48 11 -16 -6 -32 -7
-35 -2 -3 5 5 11 17 14 13 3 -6 3 -42 2 -43 -3 -58 -1 -45 5 30 13 134 3 154
-15z m-178 -32 c9 -11 23 -14 46 -11 18 3 35 1 38 -4 4 -5 -5 -9 -19 -9 -14 0
-26 -4 -26 -10 0 -5 -5 -10 -11 -10 -5 0 -7 5 -4 10 4 7 -13 10 -49 8 -31 -1
-60 2 -65 7 -7 7 9 9 42 8 29 -1 44 0 35 3 -10 3 -18 10 -18 15 0 14 16 11 31
-7z m114 -4 c3 -5 2 -10 -4 -10 -5 0 -13 5 -16 10 -3 6 -2 10 4 10 5 0 13 -4
16 -10z m-35 -40 c0 -5 -2 -10 -4 -10 -3 0 -8 5 -11 10 -3 6 -1 10 4 10 6 0
11 -4 11 -10z"/>
<path d="M3080 1410 l0 -360 85 1 85 1 0 119 0 119 90 0 c77 0 98 4 139 25 52
26 85 60 106 111 14 33 20 174 8 183 -5 3 -16 22 -25 43 -39 85 -136 118 -355
118 l-133 0 0 -360z m45 -323 c11 -3 10 -4 -2 -3 -17 1 -18 23 -18 336 l0 335
2 -332 c3 -285 5 -332 18 -336z m262 657 c-3 -3 -12 -4 -19 -1 -8 3 -5 6 6 6
11 1 17 -2 13 -5z m46 -11 c-7 -2 -19 -2 -25 0 -7 3 -2 5 12 5 14 0 19 -2 13
-5z m37 -7 c0 -2 -7 -7 -16 -10 -8 -3 -12 -2 -9 4 6 10 25 14 25 6z m-77 -13
c-7 -2 -19 -2 -25 0 -7 3 -2 5 12 5 14 0 19 -2 13 -5z m154 -50 c24 -43 22
-58 -3 -25 -9 11 -13 13 -14 4 0 -7 -5 -10 -10 -7 -8 5 -7 11 1 21 20 25 3 46
-33 40 -25 -5 -28 -4 -13 3 33 16 47 8 72 -36z m-169 30 c-10 -2 -26 -2 -35 0
-10 3 -2 5 17 5 19 0 27 -2 18 -5z m-113 -13 c19 -8 19 -9 -2 -9 -12 -1 -25 4
-28 9 -7 12 2 12 30 0z m180 0 c3 -6 -1 -7 -9 -4 -18 7 -21 14 -7 14 6 0 13
-4 16 -10z m-81 -18 c3 -5 -8 -6 -25 -4 -16 2 -29 6 -29 8 0 8 49 4 54 -4z
m76 -12 c0 -5 -2 -10 -4 -10 -3 0 -8 5 -11 10 -3 6 -1 10 4 10 6 0 11 -4 11
-10z m-187 -7 c-7 -2 -19 -2 -25 0 -7 3 -2 5 12 5 14 0 19 -2 13 -5z m54 1
c-3 -3 -12 -4 -19 -1 -8 3 -5 6 6 6 11 1 17 -2 13 -5z m67 -34 c29 -12 46 -26
47 -37 0 -10 2 -27 5 -38 4 -23 -14 -75 -27 -75 -5 0 -6 -8 -3 -17 5 -14 4
-15 -4 -4 -8 11 -16 12 -39 2 -15 -6 -44 -9 -63 -7 -19 2 -42 4 -50 5 -11 1
-11 4 -2 13 16 16 16 144 0 154 -9 6 -5 10 12 14 50 12 79 10 124 -10z m66 0
c0 -5 -7 -7 -15 -4 -8 4 -15 8 -15 10 0 2 7 4 15 4 8 0 15 -4 15 -10z m104 -6
c5 -14 4 -15 -9 -4 -17 14 -19 20 -6 20 5 0 12 -7 15 -16z m-317 -111 c-2 -21
-4 -4 -4 37 0 41 2 58 4 38 2 -21 2 -55 0 -75z m298 -10 c0 -19 -6 -27 -22
-29 -20 -3 -21 -2 -6 26 18 37 29 38 28 3z m33 -32 c10 -6 9 -10 -7 -14 -14
-3 -21 0 -21 9 0 16 9 18 28 5z m-55 -28 c-7 -2 -19 -2 -25 0 -7 3 -2 5 12 5
14 0 19 -2 13 -5z m-194 -7 c-10 -8 -89 -13 -89 -5 0 5 21 9 47 9 25 0 44 -2
42 -4z m221 -23 c0 -33 -16 -61 -27 -50 -4 5 -1 12 7 17 11 7 8 10 -15 11 -24
1 -25 3 -7 6 26 5 30 23 5 24 -12 1 -10 4 7 9 14 4 26 8 28 9 1 1 2 -11 2 -26z
m23 7 c-3 -12 -8 -19 -11 -16 -5 6 5 36 12 36 2 0 2 -9 -1 -20z m-193 0 c0 -5
-10 -10 -22 -10 -19 0 -20 2 -8 10 19 13 30 13 30 0z m-82 -13 c-16 -6 -28
-14 -28 -19 0 -4 -7 -8 -15 -8 -25 0 -5 29 23 33 44 7 48 5 20 -6z m112 -3 c0
-9 -33 -33 -45 -34 -5 0 -3 5 5 10 12 8 12 10 -5 11 l-20 0 20 9 c25 11 45 12
45 4z m65 -34 c-18 -8 -18 -9 5 -10 l25 -1 -23 -12 c-19 -8 -25 -8 -32 3 -10
16 5 30 30 29 10 0 8 -3 -5 -9z m-145 -20 c0 -5 -7 -10 -15 -10 -8 0 -15 5
-15 10 0 6 7 10 15 10 8 0 15 -4 15 -10z m-62 -20 c-7 -11 -17 -20 -22 -20 -5
0 -1 9 9 20 10 11 20 20 22 20 2 0 -2 -9 -9 -20z m-21 -182 c-2 -24 -4 -5 -4
42 0 47 2 66 4 43 2 -24 2 -62 0 -85z m-22 -58 c-3 -5 -25 -9 -48 -8 l-42 1
45 7 c25 4 46 8 48 8 2 1 0 -2 -3 -8z"/>
<path d="M3718 1427 c-2 -189 -2 -351 0 -360 3 -15 25 -17 203 -17 l199 0 2
48 c1 36 2 39 5 15 7 -55 21 -37 20 25 l-2 57 -125 -2 -125 -3 2 60 c1 33 -3
62 -8 65 -5 4 -8 18 -8 33 1 20 3 22 6 7 3 -19 10 -20 124 -17 l120 3 -3 66
-3 66 -110 1 c-62 0 -113 5 -117 11 -4 5 -8 0 -8 -13 0 -13 4 -20 10 -17 6 3
10 -1 10 -9 0 -10 -6 -13 -16 -9 -12 4 -14 14 -9 42 3 20 9 60 12 90 4 43 2
52 -9 46 -7 -5 -10 -5 -6 0 4 4 65 8 136 7 l128 0 2 73 2 74 -215 1 -214 1 -3
-344z m39 211 c-2 -24 -4 -5 -4 42 0 47 2 66 4 43 2 -24 2 -62 0 -85z m366 10
c8 -5 6 -8 -5 -8 -16 0 -18 9 -16 63 l2 62 3 -55 c3 -30 10 -58 16 -62z m4 50
c-2 -13 -4 -5 -4 17 -1 22 1 32 4 23 2 -10 2 -28 0 -40z m-127 -8 c0 -5 -4
-10 -10 -10 -5 0 -10 5 -10 10 0 6 5 10 10 10 6 0 10 -4 10 -10z m-130 -30 c0
-5 -2 -10 -4 -10 -3 0 -8 5 -11 10 -3 6 -1 10 4 10 6 0 11 -4 11 -10z m157
-16 c-3 -3 -12 -4 -19 -1 -8 3 -5 6 6 6 11 1 17 -2 13 -5z m63 -3 c0 -5 -9 -7
-20 -4 -11 3 -20 7 -20 9 0 2 9 4 20 4 11 0 20 -4 20 -9z m-210 -49 c0 -2 -4
0 -10 3 -6 4 -10 -9 -10 -31 0 -50 -9 -38 -14 19 -4 44 -4 45 15 29 10 -9 19
-18 19 -20z m-123 -375 c-1 -67 -3 -9 -3 128 0 138 2 192 3 122 2 -71 2 -183
0 -250z m110 236 c-3 -10 -5 -4 -5 12 0 17 2 24 5 18 2 -7 2 -21 0 -30z m-20
-5 c-3 -7 -5 -2 -5 12 0 14 2 19 5 13 2 -7 2 -19 0 -25z m260 6 c-3 -3 -12 -4
-19 -1 -8 3 -5 6 6 6 11 1 17 -2 13 -5z m-162 -24 c-3 -5 -1 -10 5 -10 6 0 9
-4 5 -10 -3 -5 -12 -7 -21 -3 -11 4 -12 9 -3 19 13 16 23 19 14 4z m169 -2
c-3 -4 -9 -8 -15 -8 -5 0 -9 4 -9 8 0 5 7 9 15 9 8 0 12 -4 9 -9z m-57 -20
c-3 -8 -6 -5 -6 6 -1 11 2 17 5 13 3 -3 4 -12 1 -19z m-191 -64 l1 -39 -4 38
c-2 20 -8 35 -14 32 -5 -4 -9 -1 -9 5 0 7 6 10 13 8 6 -3 13 -22 13 -44z m91
40 c-3 -3 -12 -4 -19 -1 -8 3 -5 6 6 6 11 1 17 -2 13 -5z m96 -1 c-13 -2 -33
-2 -45 0 -13 2 -3 4 22 4 25 0 35 -2 23 -4z m-139 -18 c-4 -8 -8 -15 -10 -15
-2 0 -4 7 -4 15 0 8 4 15 10 15 5 0 7 -7 4 -15z m206 -11 c0 -2 -46 -3 -102
-2 l-103 2 90 5 c84 6 115 4 115 -5z m-262 -137 c-15 -45 -19 -46 -14 -6 3 19
5 38 5 42 1 5 5 6 10 2 6 -3 6 -18 -1 -38z m249 -129 c-2 -18 -4 -4 -4 32 0
36 2 50 4 33 2 -18 2 -48 0 -65z m-187 62 c0 -13 -11 -13 -30 0 -12 8 -11 10
8 10 12 0 22 -4 22 -10z m-7 -37 c-7 -2 -21 -2 -30 0 -10 3 -4 5 12 5 17 0 24
-2 18 -5z m-103 -18 c0 -8 -4 -15 -10 -15 -5 0 -10 7 -10 15 0 8 5 15 10 15 6
0 10 -7 10 -15z m207 -11 c-3 -3 -12 -4 -19 -1 -8 3 -5 6 6 6 11 1 17 -2 13
-5z m-194 -21 c-7 -2 -21 -2 -30 0 -10 3 -4 5 12 5 17 0 24 -2 18 -5z"/>
<path d="M4866 1762 c-3 -4 -2 -43 1 -86 l6 -77 63 3 c35 3 67 7 70 11 3 3 12
1 18 -6 9 -8 10 -23 4 -52 -5 -22 -7 -143 -6 -270 l3 -230 92 -3 92 -3 1 273
c0 150 0 279 0 286 0 9 5 10 18 4 9 -5 44 -9 77 -8 l60 1 3 83 3 82 -250 0
c-137 0 -252 -4 -255 -8z m94 -62 c0 -13 -7 -20 -20 -20 -25 0 -27 27 -2 33 9
3 18 5 20 6 1 0 2 -8 2 -19z m100 -9 c0 -5 -9 -7 -20 -4 -11 3 -20 7 -20 9 0
2 9 4 20 4 11 0 20 -4 20 -9z m120 -31 c0 -13 -11 -13 -30 0 -12 8 -11 10 8
10 12 0 22 -4 22 -10z m80 -5 c7 -8 8 -15 2 -15 -5 0 -15 7 -22 15 -7 8 -8 15
-2 15 5 0 15 -7 22 -15z m-337 -22 c-7 -2 -21 -2 -30 0 -10 3 -4 5 12 5 17 0
24 -2 18 -5z m62 -3 c3 -6 -1 -7 -9 -4 -18 7 -21 14 -7 14 6 0 13 -4 16 -10z
m322 4 c-3 -3 -12 -4 -19 -1 -8 3 -5 6 6 6 11 1 17 -2 13 -5z"/>
<path d="M5480 1410 l0 -360 85 1 85 1 0 127 c0 85 -4 131 -12 139 -9 9 -8 12
5 12 16 0 36 26 34 45 -1 6 18 13 43 16 l45 6 -58 1 c-36 1 -56 6 -52 12 3 6
-4 14 -17 19 -19 8 -20 10 -5 10 17 1 19 9 15 91 -2 68 0 91 10 95 45 17 147
-14 156 -49 24 -88 -9 -141 -94 -155 l-55 -9 47 -1 c26 0 50 -5 53 -11 9 -15
45 -12 51 4 3 8 12 17 20 20 11 4 12 2 5 -13 -14 -25 -32 -31 -104 -32 -46 -1
-56 -3 -37 -9 23 -7 23 -8 4 -9 -23 -1 -43 -33 -25 -39 6 -2 9 -8 6 -12 -3 -5
26 -61 65 -125 38 -64 70 -121 70 -126 0 -5 29 -9 65 -9 59 0 84 11 53 23 -8
3 -5 6 6 6 15 1 17 7 14 33 -5 28 -4 29 9 13 16 -23 17 -45 2 -45 -6 0 -9 -6
-7 -12 3 -7 20 -14 39 -14 19 -1 28 0 22 3 -7 3 -13 9 -13 13 0 5 -14 30 -31
55 -34 51 -52 47 -43 -10 4 -21 3 -26 -4 -16 -10 14 -9 44 2 72 4 10 -6 32
-29 60 -19 24 -35 49 -35 55 0 6 -7 17 -15 24 -25 21 -17 36 23 48 95 29 150
163 107 265 -22 52 -64 99 -85 92 -9 -3 -32 1 -51 9 -27 12 -29 15 -12 16 12
0 25 -4 28 -10 3 -5 14 -10 23 -10 11 0 13 3 5 11 -20 20 -157 39 -285 39
l-128 0 0 -360z m45 -323 c11 -3 10 -4 -2 -3 -17 1 -18 23 -18 336 l0 335 2
-332 c3 -285 5 -332 18 -336z m315 627 c0 -2 -18 -4 -40 -4 -22 0 -40 3 -40 8
0 4 18 6 40 4 22 -2 40 -6 40 -8z m-213 -10 c-3 -3 -12 -4 -19 -1 -8 3 -5 6 6
6 11 1 17 -2 13 -5z m23 -19 c-10 -12 -9 -15 6 -15 11 -1 30 -7 44 -15 25 -14
25 -14 3 -15 -13 0 -23 4 -23 9 0 13 -48 19 -59 8 -6 -6 -14 -7 -18 -2 -5 4
-2 10 5 12 7 3 18 11 25 19 16 18 33 18 17 -1z m140 5 c12 -8 11 -10 -7 -10
-13 0 -23 5 -23 10 0 13 11 13 30 0z m88 -15 c0 -14 -4 -25 -8 -25 -13 0 -32
29 -25 40 12 19 33 10 33 -15z m76 -24 c15 -28 18 -74 5 -65 -4 2 -5 13 -2 23
3 10 0 22 -6 25 -7 5 -11 -2 -12 -16 0 -21 -1 -21 -8 -4 -7 18 -3 66 5 66 2 0
10 -13 18 -29z m-211 12 c-7 -2 -19 -2 -25 0 -7 3 -2 5 12 5 14 0 19 -2 13 -5z
m-99 -21 c2 -4 -7 -12 -20 -19 -27 -12 -30 -9 -11 12 14 16 24 18 31 7z m-17
-109 c-2 -16 -4 -5 -4 22 0 28 2 40 4 28 2 -13 2 -35 0 -50z m-20 35 c-3 -8
-6 -5 -6 6 -1 11 2 17 5 13 3 -3 4 -12 1 -19z m303 -13 c10 -12 9 -16 -5 -21
-19 -8 -40 9 -31 25 10 15 21 14 36 -4z m64 -41 c4 -10 1 -14 -6 -12 -15 5
-23 28 -10 28 5 0 13 -7 16 -16z m-137 -16 c-3 -8 -6 -5 -6 6 -1 11 2 17 5 13
3 -3 4 -12 1 -19z m106 -21 c-1 -15 2 -27 7 -27 6 0 11 10 11 23 1 18 2 19 6
3 6 -23 -11 -41 -29 -30 -16 11 -20 66 -4 61 6 -2 10 -16 9 -30z m-316 -9 c-3
-7 -5 -2 -5 12 0 14 2 19 5 13 2 -7 2 -19 0 -25z m209 -8 c0 -11 -6 -20 -13
-20 -11 0 -11 5 -3 20 6 11 12 20 13 20 2 0 3 -9 3 -20z m59 1 c3 -5 1 -12 -5
-16 -5 -3 -10 1 -10 9 0 18 6 21 15 7z m-95 -41 c0 -5 -8 -10 -17 -10 -15 0
-16 2 -3 10 19 12 20 12 20 0z m85 0 c-3 -5 -12 -10 -18 -10 -7 0 -6 4 3 10
19 12 23 12 15 0z m39 4 c22 -8 10 -24 -17 -23 -19 1 -19 2 -3 6 15 4 16 7 5
14 -16 10 -8 12 15 3z m-280 -25 c23 -27 9 -40 -24 -23 -20 11 -22 14 -6 14
15 0 16 3 6 15 -7 8 -8 15 -3 15 5 0 17 -10 27 -21z m212 -10 c-15 -9 -16 -13
-5 -20 10 -6 7 -9 -10 -9 -23 0 -24 1 -6 20 10 11 23 20 29 20 6 0 3 -5 -8
-11z m-221 -41 c6 -4 2 -8 -7 -8 -10 0 -18 7 -18 17 0 9 3 12 8 7 4 -5 12 -12
17 -16z m139 7 c-22 -17 -34 -19 -34 -6 0 5 8 12 18 14 32 9 36 7 16 -8z m-44
-30 c11 -13 10 -14 -4 -9 -9 3 -16 10 -16 15 0 13 6 11 20 -6z m88 -17 c2 -13
-3 -18 -17 -18 -12 0 -21 2 -21 4 0 2 -3 12 -6 21 -5 13 -2 16 17 13 13 -1 25
-11 27 -20z m-187 -106 c1 -57 -1 -106 -5 -109 -3 -4 -6 45 -6 107 0 140 8
142 11 2z m86 76 c-3 -8 -6 -5 -6 6 -1 11 2 17 5 13 3 -3 4 -12 1 -19z m43 13
c0 -6 -4 -13 -10 -16 -5 -3 -10 1 -10 9 0 9 5 16 10 16 6 0 10 -4 10 -9z m87
-13 c-3 -8 -6 -5 -6 6 -1 11 2 17 5 13 3 -3 4 -12 1 -19z m-240 -55 c-2 -16
-4 -5 -4 22 0 28 2 40 4 28 2 -13 2 -35 0 -50z m215 25 c-9 -9 -12 -7 -12 12
0 19 3 21 12 12 9 -9 9 -15 0 -24z m-69 -20 c6 -22 5 -22 -8 -4 -17 22 -20 40
-6 32 5 -3 11 -16 14 -28z m127 7 c7 -14 10 -28 6 -32 -4 -4 -9 3 -13 15 -3
12 -9 22 -14 22 -5 0 -9 5 -9 10 0 18 17 10 30 -15z m-80 0 c0 -8 -4 -15 -9
-15 -13 0 -22 16 -14 24 11 11 23 6 23 -9z m30 -55 c0 -5 -4 -10 -10 -10 -5 0
-10 5 -10 10 0 6 5 10 10 10 6 0 10 -4 10 -10z m-30 -21 c0 -11 -4 -17 -10
-14 -5 3 -10 13 -10 21 0 8 5 14 10 14 6 0 10 -9 10 -21z m28 -24 c-3 -14 -1
-28 3 -31 5 -3 9 -13 9 -22 -1 -11 -6 -8 -16 11 -8 15 -12 37 -9 47 9 29 18
25 13 -5z m72 15 c0 -5 -5 -10 -11 -10 -5 0 -7 5 -4 10 3 6 8 10 11 10 2 0 4
-4 4 -10z m-295 -80 c-3 -5 -25 -9 -48 -8 l-42 1 45 7 c25 4 46 8 48 8 2 1 0
-2 -3 -8z m303 -7 c-10 -2 -28 -2 -40 0 -13 2 -5 4 17 4 22 1 32 -1 23 -4z"/>
<path d="M6123 1508 c7 -290 17 -351 65 -394 39 -35 96 -63 138 -69 20 -2 45
-7 56 -11 11 -3 18 -2 15 2 -3 5 30 8 73 6 63 -3 87 1 125 18 52 24 105 67
105 86 0 7 5 14 10 16 11 3 33 113 34 168 0 19 -1 126 -2 238 l-2 202 -90 0
-90 0 -2 -250 c-1 -137 -2 -258 -2 -267 -1 -26 -75 -73 -114 -73 -47 0 -102
28 -115 59 -6 14 -14 28 -17 31 -3 3 -5 115 -5 250 l0 245 -94 3 -94 3 6 -263z
m134 -35 c-1 -54 -3 -12 -3 92 0 105 2 149 3 98 2 -51 2 -136 0 -190z m20 25
c-1 -40 -3 -8 -3 72 0 80 2 112 3 73 2 -40 2 -106 0 -145z m10 -165 c-3 -10
-5 -4 -5 12 0 17 2 24 5 18 2 -7 2 -21 0 -30z m-20 -50 c-2 -16 -4 -5 -4 22 0
28 2 40 4 28 2 -13 2 -35 0 -50z m-20 25 c-3 -8 -6 -5 -6 6 -1 11 2 17 5 13 3
-3 4 -12 1 -19z m-100 -30 c-3 -8 -6 -5 -6 6 -1 11 2 17 5 13 3 -3 4 -12 1
-19z m498 -18 c-3 -5 -10 -10 -16 -10 -5 0 -9 5 -9 10 0 6 7 10 16 10 8 0 12
-4 9 -10z m-395 -45 c0 -8 -14 -24 -31 -34 -18 -11 -25 -21 -18 -23 9 -3 7 -6
-5 -11 -10 -4 -15 -3 -11 3 3 6 0 10 -7 10 -7 1 -1 8 15 16 15 8 27 23 27 34
0 11 7 20 15 20 8 0 15 -7 15 -15z m307 -27 c1 -18 -1 -25 -4 -15 -2 9 -9 17
-15 17 -6 0 -6 6 2 15 16 20 16 20 17 -17z m160 10 c-3 -8 -6 -5 -6 6 -1 11 2
17 5 13 3 -3 4 -12 1 -19z m-55 -58 c-8 -23 -23 -40 -36 -40 -6 0 -4 6 5 13
12 9 16 25 14 57 -3 45 -3 45 9 15 7 -16 11 -37 8 -45z m-377 50 c-3 -5 -14
-10 -23 -9 -14 0 -13 2 3 9 27 11 27 11 20 0z m50 0 c8 -13 -5 -13 -25 0 -13
8 -13 10 2 10 9 0 20 -4 23 -10z m358 -15 c-7 -21 -13 -19 -13 6 0 11 4 18 10
14 5 -3 7 -12 3 -20z m-173 5 c0 -5 -7 -10 -15 -10 -8 0 -15 -6 -15 -12 0 -9
-18 -13 -54 -13 -30 0 -49 3 -43 7 7 4 29 8 50 8 20 0 37 4 37 9 0 5 8 12 18
14 9 3 18 5 20 6 1 0 2 -3 2 -9z m-130 -10 c-20 -13 -53 -13 -45 0 3 6 18 10
33 10 21 0 24 -2 12 -10z m-87 -30 c-6 -23 20 -38 40 -22 14 11 77 4 77 -9 0
-4 -17 -6 -37 -3 -31 3 -34 2 -18 -6 16 -8 13 -9 -15 -4 -26 4 -31 3 -20 -5
11 -8 11 -11 2 -11 -7 0 -15 7 -18 15 -4 8 -12 15 -19 15 -13 0 -27 35 -17 44
13 14 30 5 25 -14z m224 -5 c-9 -8 -22 -15 -29 -15 -7 1 -3 9 11 21 27 22 42
18 18 -6z m-292 -14 c-4 -14 0 -20 17 -24 13 -4 32 -13 43 -21 18 -14 17 -14
-15 -3 -41 14 -92 51 -83 61 3 3 15 6 25 6 14 0 18 -5 13 -19z m365 -1 c0 -5
-7 -10 -16 -10 -8 0 -12 5 -9 10 3 6 10 10 16 10 5 0 9 -4 9 -10z m-56 -9 c3
-5 -5 -11 -19 -13 -20 -4 -23 -3 -14 8 13 16 25 18 33 5z m3 -27 c-3 -3 -12
-4 -19 -1 -8 3 -5 6 6 6 11 1 17 -2 13 -5z m40 0 c-3 -3 -12 -4 -19 -1 -8 3
-5 6 6 6 11 1 17 -2 13 -5z m-88 -28 c-3 -3 -16 -2 -29 1 -22 6 -22 7 -4 14
18 6 43 -5 33 -15z m-126 7 c-7 -2 -19 -2 -25 0 -7 3 -2 5 12 5 14 0 19 -2 13
-5z"/>
<path d="M6972 1742 c-6 -15 -10 -34 -10 -42 0 -8 -5 -40 -11 -70 -7 -30 -13
-110 -15 -178 -2 -67 -7 -126 -11 -130 -4 -4 -4 20 -2 53 l6 60 -13 -60 c-7
-33 -9 -64 -4 -69 4 -6 7 -30 6 -55 l-1 -46 -7 50 -7 50 -1 -46 c-1 -25 -6
-49 -12 -55 -5 -5 -12 -42 -16 -82 l-7 -72 85 0 85 0 7 83 c7 78 28 260 43
356 7 48 33 110 33 79 0 -9 -4 -20 -10 -23 -5 -3 -10 -14 -10 -23 0 -15 2 -15
10 -2 8 11 9 8 5 -11 -8 -35 13 -118 25 -99 6 10 8 3 8 -20 -2 -38 41 -203 53
-208 4 -2 5 -10 2 -18 -3 -8 -1 -20 5 -27 6 -6 13 -29 17 -49 6 -33 9 -36 22
-23 19 19 33 19 33 0 0 -11 11 -15 40 -15 32 0 40 4 40 18 0 15 37 151 65 242
6 20 45 168 52 200 6 23 7 23 14 5 4 -11 8 -36 8 -55 1 -28 4 -32 12 -20 8 11
9 8 4 -15 -4 -16 -7 -34 -7 -40 5 -75 15 -153 27 -212 8 -40 15 -84 15 -98 0
-24 2 -25 70 -25 70 0 70 0 70 28 0 15 5 33 12 40 8 8 9 21 0 49 -6 21 -14 73
-17 115 -5 50 -11 75 -18 71 -5 -3 -7 -1 -3 5 3 6 -7 95 -24 199 -16 103 -30
194 -30 201 0 9 -25 12 -89 12 l-89 0 -10 -32 c-25 -85 -34 -128 -26 -140 4
-7 3 -10 -1 -5 -5 4 -15 -7 -22 -25 -17 -40 -73 -253 -74 -282 -1 -14 -4 -9
-11 14 -5 19 -18 43 -29 53 -10 10 -19 25 -18 35 0 12 3 10 10 -7 5 -13 12
-22 15 -19 2 3 0 16 -5 29 -5 13 -21 69 -36 124 -15 55 -30 107 -33 115 -3 8
-13 42 -22 75 l-16 60 -86 2 c-85 2 -86 1 -96 -25z m31 -12 c-3 -11 -7 -20 -9
-20 -2 0 -4 9 -4 20 0 11 4 20 9 20 5 0 7 -9 4 -20z m23 -37 c-11 -11 -17 4
-9 23 7 18 8 18 11 1 2 -10 1 -21 -2 -24z m114 22 c-6 -8 -9 -19 -6 -24 4 -5
3 -12 -2 -15 -5 -3 -8 8 -8 25 0 19 5 29 14 29 12 0 12 -3 2 -15z m297 -32
c-3 -10 -5 -4 -5 12 0 17 2 24 5 18 2 -7 2 -21 0 -30z m170 -20 c-3 -10 -5 -4
-5 12 0 17 2 24 5 18 2 -7 2 -21 0 -30z m-480 -40 c-3 -10 -5 -4 -5 12 0 17 2
24 5 18 2 -7 2 -21 0 -30z m310 4 c1 -29 1 -30 -8 -9 -5 13 -7 28 -3 33 8 14
9 12 11 -24z m123 18 c0 -18 -41 -37 -54 -24 -13 11 12 39 35 39 11 0 19 -7
19 -15z m-461 -42 c-1 -27 -3 -40 -6 -30 -2 9 -8 15 -11 13 -4 -2 -8 11 -9 30
-1 24 3 34 13 34 10 0 14 -12 13 -47z m48 15 c-3 -7 -5 -2 -5 12 0 14 2 19 5
13 2 -7 2 -19 0 -25z m463 -35 c-11 -17 -11 -17 -6 0 3 10 7 28 7 40 2 22 2
22 6 0 2 -12 -1 -30 -7 -40z m-193 -30 c-3 -10 -5 -2 -5 17 0 19 2 27 5 18 2
-10 2 -26 0 -35z m36 -28 c-12 -37 -18 -45 -23 -31 -9 26 0 82 11 65 6 -11 9
-10 15 4 15 40 13 7 -3 -38z m127 25 c0 -16 -4 -30 -10 -30 -5 0 -10 14 -10
30 0 17 5 30 10 30 6 0 10 -13 10 -30z m-510 -78 c0 -59 -9 -50 -11 12 -1 26
-6 49 -11 52 -4 3 -8 13 -8 22 0 11 6 6 15 -12 8 -15 15 -49 15 -74z m564 53
c5 -29 4 -36 -3 -25 -6 8 -11 28 -11 44 0 39 6 31 14 -19z m-248 0 c-4 -14
-11 -25 -16 -25 -5 0 -5 13 2 31 12 35 23 31 14 -6z m131 -12 c1 -22 -1 -24
-8 -10 -6 9 -7 22 -4 27 9 14 10 13 12 -17z m-50 -5 c-3 -8 -6 -5 -6 6 -1 11
2 17 5 13 3 -3 4 -12 1 -19z m153 -21 c0 -5 -4 -5 -10 -2 -5 3 -10 14 -10 23
0 15 2 15 10 2 5 -8 10 -19 10 -23z m-607 -14 c4 -19 2 -33 -3 -33 -6 0 -10
17 -10 37 0 43 5 41 13 -4z m207 13 c0 -8 -7 -16 -15 -20 -17 -6 -18 -4 -9 18
8 20 24 21 24 2z m231 -32 c-5 -16 -10 -21 -10 -12 -1 18 10 51 15 45 2 -1 -1
-16 -5 -33z m-504 4 c-3 -8 -6 -5 -6 6 -1 11 2 17 5 13 3 -3 4 -12 1 -19z
m100 0 c-3 -8 -6 -5 -6 6 -1 11 2 17 5 13 3 -3 4 -12 1 -19z m590 0 c-3 -8 -6
-5 -6 6 -1 11 2 17 5 13 3 -3 4 -12 1 -19z m-280 -20 c-3 -7 -5 -2 -5 12 0 14
2 19 5 13 2 -7 2 -19 0 -25z m-117 -4 c0 -8 -5 -14 -11 -14 -5 0 -7 5 -4 10 3
6 1 10 -5 10 -6 0 -8 5 -5 10 8 13 25 3 25 -16z m394 -19 c-9 -14 -18 -25 -20
-25 -7 0 10 35 20 42 17 12 17 9 0 -17z m-449 -27 c0 -29 4 -42 13 -40 6 1 12
-2 12 -6 0 -18 -13 -19 -29 -3 -21 21 -34 51 -22 51 5 0 11 9 14 20 8 31 12
24 12 -22z m168 -30 c-2 -34 -6 -64 -9 -67 -4 -3 -4 14 -1 38 3 24 2 40 -3 35
-5 -5 -10 -29 -13 -54 l-4 -45 -1 53 c-1 29 2 52 8 52 6 0 10 8 10 18 0 15 8
32 15 32 0 0 -1 -28 -2 -62z m-126 31 c2 -20 -23 -33 -33 -17 -4 7 -3 8 4 4
15 -9 15 7 1 21 -9 9 -7 12 8 11 10 -1 20 -10 20 -19z m420 -16 c-3 -10 -5 -4
-5 12 0 17 2 24 5 18 2 -7 2 -21 0 -30z m-596 -43 c-8 -43 -9 -44 -10 -10 -1
39 11 94 16 70 2 -8 -1 -35 -6 -60z m362 29 c-5 -19 -7 -19 -15 -5 -10 18 -2
39 12 31 4 -3 6 -15 3 -26z m-21 -48 c2 -17 1 -28 -3 -25 -5 3 -12 -10 -17
-28 l-10 -33 1 42 c1 24 5 37 9 30 5 -7 8 -1 8 16 0 36 7 35 12 -2z m-434 -36
c0 -16 -2 -15 -8 5 -11 34 -11 60 0 35 5 -11 8 -29 8 -40z m241 -15 c0 -9 -4
-8 -9 5 -5 11 -9 27 -9 35 0 9 4 8 9 -5 5 -11 9 -27 9 -35z m-252 -52 c-3 -7
-5 -2 -5 12 0 14 2 19 5 13 2 -7 2 -19 0 -25z m432 -7 c-8 -23 -14 -29 -20
-20 -5 8 -3 17 4 21 7 4 8 8 4 8 -4 0 -2 6 5 14 18 20 20 14 7 -23z m191 -16
c-8 -9 -10 -27 -6 -48 4 -23 3 -28 -4 -17 -14 21 -12 78 3 83 18 6 21 -1 7
-18z m27 3 c-3 -8 -6 -5 -6 6 -1 11 2 17 5 13 3 -3 4 -12 1 -19z m-343 -22
c-3 -9 -10 -16 -15 -16 -5 0 -4 9 3 20 14 22 21 20 12 -4z m392 -43 c-11 -11
-19 6 -11 24 8 17 8 17 12 0 3 -10 2 -21 -1 -24z m41 15 c-3 -8 -6 -5 -6 6 -1
11 2 17 5 13 3 -3 4 -12 1 -19z m-425 -23 c3 -13 1 -22 -3 -19 -9 5 -13 44 -5
44 2 0 6 -11 8 -25z m333 -5 c-3 -5 2 -10 13 -10 10 0 19 -7 19 -15 0 -8 -7
-15 -14 -15 -8 0 -11 5 -8 10 3 6 1 10 -5 10 -6 0 -13 -7 -16 -15 -4 -8 -11
-12 -16 -9 -6 4 -5 10 3 15 8 4 15 13 15 19 2 17 4 20 10 20 3 0 2 -4 -1 -10z
m-672 -7 c-7 -2 -19 -2 -25 0 -7 3 -2 5 12 5 14 0 19 -2 13 -5z m420 0 c-7 -2
-21 -2 -30 0 -10 3 -4 5 12 5 17 0 24 -2 18 -5z m4 -19 c-3 -3 -12 -4 -19 -1
-8 3 -5 6 6 6 11 1 17 -2 13 -5z m-399 -21 c-10 -2 -28 -2 -40 0 -13 2 -5 4
17 4 22 1 32 -1 23 -4z"/>
<path d="M1235 1707 c-54 -9 -75 -24 -104 -71 -20 -33 -40 -133 -25 -123 5 3
9 -12 9 -32 1 -50 43 -99 71 -82 18 10 17 10 -3 11 -13 0 -23 4 -23 8 0 11 30
9 54 -5 17 -9 16 -11 -8 -17 -15 -4 -24 -11 -21 -16 9 -15 77 -19 325 -23 267
-3 264 -3 351 -92 23 -24 46 -42 51 -39 4 3 5 -2 2 -10 -3 -8 2 -28 11 -45 26
-50 24 -232 -3 -293 -28 -63 -89 -128 -148 -158 -47 -23 -55 -23 -382 -28
l-333 -5 31 -32 c32 -33 134 -74 238 -94 66 -14 263 -14 320 -1 121 28 279
136 398 271 50 57 113 185 129 261 19 87 20 220 4 313 -10 63 -84 229 -108
245 -4 3 -14 16 -20 28 -9 16 -19 22 -32 19 -10 -3 -17 -1 -13 4 6 10 -19 10
-446 13 -152 0 -298 -3 -325 -7z m38 -14 c-7 -2 -21 -2 -30 0 -10 3 -4 5 12 5
17 0 24 -2 18 -5z m114 1 c-3 -3 -12 -4 -19 -1 -8 3 -5 6 6 6 11 1 17 -2 13
-5z m400 0 c-3 -3 -12 -4 -19 -1 -8 3 -5 6 6 6 11 1 17 -2 13 -5z m-124 -11
c-13 -2 -33 -2 -45 0 -13 2 -3 4 22 4 25 0 35 -2 23 -4z m-464 -51 c1 -18 -49
-36 -63 -22 -7 7 0 10 22 10 18 0 32 5 32 10 0 6 -7 10 -15 10 -18 0 -19 12
-3 28 10 10 14 9 20 -5 3 -10 7 -24 7 -31z m767 21 c20 -27 18 -65 -3 -61 -13
2 -19 14 -21 41 -4 41 4 46 24 20z m82 -16 c5 -24 -15 -21 -21 4 -3 13 -1 19
6 16 7 -2 13 -11 15 -20z m32 -27 c0 -5 -8 -10 -17 -10 -15 0 -16 2 -3 10 19
12 20 12 20 0z m-800 -51 c0 -18 -2 -19 -15 -5 -8 8 -15 17 -15 20 0 3 7 6 15
6 9 0 15 -9 15 -21z m833 -9 c4 -17 3 -19 -9 -9 -8 6 -14 18 -14 26 0 20 16 8
23 -17z m-11 -50 c6 -37 -7 -27 -16 13 -4 17 -3 26 2 23 6 -3 12 -19 14 -36z
m38 -1 c0 -5 -4 -9 -10 -9 -5 0 -10 7 -10 16 0 8 5 12 10 9 6 -3 10 -10 10
-16z m-36 -62 c7 -6 6 -7 -4 -4 -8 2 -16 12 -17 23 -2 13 -1 15 4 4 3 -8 11
-19 17 -23z m40 8 c11 -8 15 -15 10 -15 -6 0 -19 7 -30 15 -10 8 -14 14 -9 14
6 0 19 -6 29 -14z m-864 -30 c0 -8 5 -15 12 -15 6 0 9 -2 6 -5 -3 -3 -16 -1
-29 4 -14 6 -18 10 -9 11 8 1 4 6 -10 10 l-25 8 28 1 c18 1 27 -4 27 -14z
m550 6 c0 -6 -4 -12 -8 -15 -5 -3 -9 1 -9 9 0 8 4 15 9 15 4 0 8 -4 8 -9z
m349 -110 c2 -80 -5 -59 -11 34 -3 45 -2 67 2 50 4 -16 8 -54 9 -84z m-566 92
c-18 -2 -48 -2 -65 0 -18 2 -4 4 32 4 36 0 50 -2 33 -4z m187 -13 c0 -5 -4
-10 -10 -10 -5 0 -10 5 -10 10 0 6 5 10 10 10 6 0 10 -4 10 -10z m-30 -22 c0
-4 -11 -8 -25 -8 -14 0 -25 4 -25 10 0 5 11 9 25 8 14 -1 25 -6 25 -10z m40
-13 c-7 -8 -17 -12 -22 -9 -6 4 -5 10 3 15 22 14 33 10 19 -6z m110 -25 c0
-23 -16 -35 -23 -18 -4 10 -7 11 -18 1 -11 -11 -11 -13 1 -13 7 0 10 -3 7 -7
-4 -3 3 -17 15 -30 33 -35 12 -27 -24 9 -29 30 -30 32 -12 45 10 7 21 13 26
13 4 0 7 3 7 8 -3 16 2 23 11 17 6 -3 10 -15 10 -25z m-76 -11 c-3 -5 -10 -7
-15 -3 -5 3 -7 10 -3 15 3 5 10 7 15 3 5 -3 7 -10 3 -15z m183 -65 c-3 -3 -12
-4 -19 -1 -8 3 -5 6 6 6 11 1 17 -2 13 -5z m86 -11 c-7 -2 -19 -2 -25 0 -7 3
-2 5 12 5 14 0 19 -2 13 -5z m-23 -23 c-8 -5 -22 -9 -30 -9 -10 0 -8 3 5 9 27
12 43 12 25 0z m-65 -30 c-3 -5 -10 -10 -16 -10 -5 0 -9 5 -9 10 0 6 7 10 16
10 8 0 12 -4 9 -10z m-35 -16 c0 -14 -3 -14 -15 -4 -12 10 -15 9 -15 -6 0 -16
-2 -16 -10 -4 -6 9 -5 17 3 22 20 13 37 9 37 -8z"/>
<path d="M7700 1082 c0 -18 5 -32 10 -32 6 0 8 11 4 28 -10 39 -14 40 -14 4z"/>
<path d="M4130 1059 c0 -5 5 -7 10 -4 6 3 10 8 10 11 0 2 -4 4 -10 4 -5 0 -10
-5 -10 -11z"/>
<path d="M7255 1060 c-3 -5 -1 -10 4 -10 6 0 11 5 11 10 0 6 -2 10 -4 10 -3 0
-8 -4 -11 -10z"/>
<path d="M3425 866 c-69 -30 -113 -120 -96 -195 19 -84 79 -131 168 -131 63 0
97 18 101 53 4 30 -2 32 -38 12 -14 -8 -46 -14 -71 -15 -41 0 -51 4 -78 35
-36 41 -42 96 -16 145 28 54 110 77 165 45 35 -20 40 -19 40 9 0 47 -106 72
-175 42z"/>
<path d="M4005 866 c-172 -77 -118 -325 71 -326 41 0 59 6 92 30 57 41 75 80
70 150 -5 69 -35 115 -92 141 -48 22 -99 24 -141 5z m124 -51 c30 -15 61 -69
61 -105 0 -37 -31 -90 -63 -107 -46 -23 -111 -13 -140 23 -85 107 23 251 142
189z"/>
<path d="M4672 715 c3 -162 4 -170 23 -170 18 0 20 8 25 108 l5 107 100 -100
c55 -56 108 -106 118 -111 16 -9 17 1 17 156 l0 165 -25 0 -25 0 0 -112 0
-113 -120 120 -120 120 2 -170z"/>
<path d="M5330 718 c0 -92 4 -169 9 -172 5 -4 17 -3 26 0 14 6 16 21 13 110
-1 57 0 103 4 102 4 -2 56 -51 116 -110 60 -60 112 -105 115 -101 4 3 7 78 7
165 l0 158 -25 0 -25 0 0 -105 c0 -58 -3 -105 -7 -105 -4 0 -58 51 -120 112
l-113 113 0 -167z"/>
<path d="M5780 869 c-62 -25 -100 -85 -100 -158 0 -61 11 -91 45 -126 34 -34
65 -45 121 -45 60 0 104 23 104 55 0 29 -7 30 -34 10 -26 -20 -106 -19 -134 1
-49 34 -66 109 -37 164 28 55 109 76 169 45 37 -19 36 -19 36 11 0 19 -8 28
-35 40 -39 16 -98 17 -135 3z"/>
<path d="M6950 718 c0 -137 3 -167 15 -171 22 -9 24 1 26 111 1 56 4 102 8
102 3 0 56 -51 118 -112 l113 -113 0 168 c0 160 -1 167 -20 167 -18 0 -20 -7
-21 -87 -1 -49 -1 -96 0 -105 1 -10 -1 -18 -6 -18 -4 0 -58 51 -120 112 l-113
113 0 -167z"/>
<path d="M2860 865 c0 -2 -14 -68 -31 -147 -38 -174 -38 -170 -16 -173 23 -4
32 15 47 100 7 39 15 74 18 80 3 5 27 -35 53 -90 l46 -100 50 99 50 100 17
-80 c10 -43 19 -86 22 -96 5 -18 36 -18 42 1 5 14 -57 292 -68 304 -4 4 -29
-42 -56 -102 -27 -61 -52 -111 -55 -111 -3 0 -28 49 -55 110 -27 60 -52 110
-56 110 -5 0 -8 -2 -8 -5z"/>
<path d="M3212 708 c3 -155 4 -163 23 -163 19 0 20 8 23 163 l2 162 -25 0 -25
0 2 -162z"/>
<path d="M3662 708 c3 -155 4 -163 23 -163 18 0 21 8 25 74 l5 75 43 -60 c24
-32 46 -64 50 -70 10 -15 62 -27 62 -14 0 5 -20 37 -45 71 -48 65 -53 79 -32
79 27 0 49 38 49 82 -1 64 -33 88 -118 88 l-64 0 2 -162z m102 112 c20 -7 26
-17 26 -39 0 -32 -22 -51 -59 -51 -18 0 -21 6 -21 43 0 59 7 65 54 47z"/>
<path d="M4300 711 c0 -147 1 -159 19 -164 35 -9 43 7 40 79 l-3 69 62 3 c54
3 62 6 62 22 0 16 -7 20 -37 20 -62 0 -81 9 -85 39 -7 46 0 51 63 51 52 0 59
2 59 20 0 19 -7 20 -90 20 l-90 0 0 -159z"/>
<path d="M4540 711 c0 -149 1 -159 19 -164 11 -3 22 -2 25 1 3 3 6 77 6 164
l0 158 -25 0 -25 0 0 -159z"/>
<path d="M5090 773 c-23 -54 -56 -124 -72 -157 -16 -32 -26 -62 -21 -67 17
-17 48 3 65 42 l17 39 64 0 64 0 18 -40 c10 -22 21 -40 24 -41 3 0 14 -2 24
-4 9 -2 17 2 17 8 -1 20 -137 311 -147 314 -6 2 -29 -40 -53 -94z m90 -90 c0
-8 -15 -13 -40 -13 -22 0 -40 2 -40 4 0 2 10 25 22 52 l21 49 18 -40 c10 -22
19 -46 19 -52z"/>
<path d="M6012 708 l3 -163 85 2 c77 1 85 3 88 22 3 18 -3 20 -60 23 l-62 3 0
50 0 50 62 3 c58 3 63 5 60 25 -3 19 -8 21 -54 18 -59 -3 -74 10 -67 57 5 32
5 32 64 32 52 0 59 2 59 20 0 19 -7 20 -90 20 l-90 0 2 -162z"/>
<path d="M6390 710 l0 -160 78 0 c96 1 113 12 120 78 4 42 1 52 -19 70 -21 20
-21 23 -6 40 25 28 21 78 -8 107 -21 22 -33 25 -95 25 l-70 0 0 -160z m124
104 c31 -30 10 -70 -41 -80 l-33 -6 0 51 c0 50 1 51 29 51 16 0 37 -7 45 -16z
m16 -143 c24 -45 -1 -81 -56 -81 l-34 0 0 50 0 50 40 0 c29 0 42 -5 50 -19z"/>
<path d="M6747 858 c-3 -7 -35 -78 -71 -157 -36 -79 -63 -147 -61 -151 11 -18
47 5 66 41 19 39 20 39 80 39 l60 0 17 -39 c16 -38 48 -59 64 -43 9 9 -131
322 -143 322 -4 0 -9 -6 -12 -12z m36 -131 c9 -23 17 -46 17 -50 0 -4 -18 -7
-40 -7 -22 0 -40 3 -40 7 0 13 35 93 40 93 3 0 13 -19 23 -43z"/>
<path d="M7312 708 c3 -161 3 -163 26 -164 21 -1 22 2 22 84 l0 86 61 -82 c58
-78 93 -103 119 -87 7 4 -2 22 -25 51 -19 24 -51 63 -70 87 l-34 43 61 70 62
69 -29 3 c-21 3 -35 -3 -50 -20 -11 -13 -37 -43 -57 -68 l-38 -44 0 67 c0 65
-1 67 -25 67 l-25 0 2 -162z"/>
<path d="M4071 261 c-39 -72 -71 -133 -71 -136 0 -3 6 -5 13 -5 6 0 22 18 35
41 l23 40 57 -3 c57 -3 57 -3 62 -37 6 -43 30 -55 29 -14 0 15 -8 75 -18 133
-15 92 -20 105 -38 108 -17 3 -32 -19 -92 -127z m101 6 l3 -42 -42 -3 c-27 -2
-43 1 -43 8 0 6 15 38 32 71 31 57 33 59 39 35 4 -14 9 -45 11 -69z"/>
<path d="M4315 378 c-8 -25 -45 -221 -45 -239 0 -11 4 -19 9 -19 10 0 61 207
61 249 0 23 -18 29 -25 9z"/>
<path d="M4400 384 c0 -3 -11 -60 -25 -126 -29 -140 -29 -138 -12 -138 9 0 21
39 36 113 12 61 25 122 28 135 4 16 1 22 -11 22 -9 0 -16 -3 -16 -6z"/>
<path d="M4778 258 c-25 -130 -27 -160 -5 -127 10 16 13 15 37 -3 34 -25 72
-12 100 34 23 38 26 105 7 132 -14 19 -51 24 -81 11 -17 -8 -18 -5 -12 38 6
36 4 47 -6 47 -9 0 -22 -43 -40 -132z m110 30 c17 -17 15 -83 -4 -119 -13 -25
-20 -30 -47 -27 -31 3 -32 5 -35 55 -3 45 1 56 22 78 28 28 46 31 64 13z"/>
<path d="M5442 368 c-7 -7 -12 -20 -12 -30 0 -9 -8 -22 -17 -27 -14 -8 -15
-13 -5 -19 10 -7 9 -23 -3 -81 -16 -79 -15 -86 15 -94 26 -7 37 11 16 26 -12
10 -14 20 -6 52 5 22 11 52 14 66 4 16 15 30 28 34 21 6 21 8 5 12 -15 4 -18
12 -15 34 5 34 -3 44 -20 27z"/>
<path d="M4603 308 c-21 -10 -38 -36 -29 -45 2 -3 18 5 34 17 39 29 82 21 82
-14 0 -26 -17 -36 -61 -36 -37 0 -65 -14 -79 -41 -27 -50 25 -90 85 -64 19 7
35 10 35 4 0 -5 6 -9 13 -9 15 0 43 139 34 165 -12 30 -73 43 -114 23z m77
-102 c0 -28 -13 -47 -41 -62 -34 -17 -69 -5 -69 25 0 25 18 39 60 44 19 2 38
5 43 5 4 1 7 -4 7 -12z"/>
<path d="M5004 284 c-28 -29 -34 -43 -34 -77 0 -77 50 -112 115 -82 53 26 80
99 53 148 -31 59 -86 63 -134 11z m98 -1 c53 -48 -14 -174 -77 -145 -22 10
-25 18 -25 62 0 41 5 56 25 75 28 29 51 32 77 8z"/>
<path d="M5759 303 c-9 -10 -31 -46 -49 -80 -18 -35 -36 -60 -40 -58 -4 3 -11
36 -15 75 -5 50 -11 70 -21 70 -17 0 -17 -6 1 -108 11 -63 12 -89 3 -107 -6
-14 -15 -26 -20 -26 -4 -1 -13 -2 -20 -3 -24 -2 -19 -26 5 -26 30 0 40 13 121
158 54 96 71 147 35 105z"/>
<path d="M5852 306 c-100 -55 -66 -220 39 -190 42 12 70 51 76 107 5 39 2 49
-20 71 -28 28 -59 32 -95 12z m69 -16 c14 -8 19 -21 19 -50 0 -79 -48 -127
-96 -95 -36 23 -33 83 5 124 31 34 42 37 72 21z"/>
<path d="M6043 305 c-17 -31 -35 -134 -29 -160 8 -30 36 -36 76 -17 27 13 33
13 40 1 13 -20 20 -8 34 57 25 111 26 124 12 124 -8 0 -18 -22 -25 -59 -15
-74 -42 -111 -82 -111 -34 0 -36 15 -18 99 6 28 9 59 7 68 -4 16 -5 16 -15 -2z"/>
<path d="M5216 301 c-15 -24 -34 -147 -25 -163 15 -27 62 -27 92 -1 15 15 17
15 17 0 0 -19 30 -23 30 -4 0 6 9 49 19 95 15 63 16 82 6 82 -7 0 -20 -28 -30
-67 -9 -38 -25 -76 -35 -85 -20 -19 -65 -24 -74 -9 -4 5 1 41 9 81 8 39 15 73
15 76 0 8 -19 4 -24 -5z"/>
<path d="M3710 135 c0 -8 7 -15 15 -15 8 0 15 7 15 15 0 8 -7 15 -15 15 -8 0
-15 -7 -15 -15z"/>
<path d="M3810 134 c0 -9 7 -14 17 -12 25 5 28 28 4 28 -12 0 -21 -6 -21 -16z"/>
<path d="M3920 135 c0 -8 7 -15 15 -15 8 0 15 7 15 15 0 8 -7 15 -15 15 -8 0
-15 -7 -15 -15z"/>
</g>
</svg>
